<svg width="193" height="38" viewBox="0 0 193 38" fill="none" xmlns="http://www.w3.org/2000/svg">
<path d="M52.4091 24V12.3636H53.8182V22.75H59.2273V24H52.4091ZM63.7955 24.2045C63.2424 24.2045 62.7405 24.1004 62.2898 23.892C61.839 23.6799 61.4811 23.375 61.2159 22.9773C60.9508 22.5758 60.8182 22.0909 60.8182 21.5227C60.8182 21.0227 60.9167 20.6174 61.1136 20.3068C61.3106 19.9924 61.5739 19.7462 61.9034 19.5682C62.233 19.3902 62.5966 19.2576 62.9943 19.1705C63.3958 19.0795 63.7992 19.0076 64.2045 18.9545C64.7348 18.8864 65.1648 18.8352 65.4943 18.8011C65.8277 18.7633 66.0701 18.7008 66.2216 18.6136C66.3769 18.5265 66.4545 18.375 66.4545 18.1591V18.1136C66.4545 17.553 66.3011 17.1174 65.9943 16.8068C65.6913 16.4962 65.2311 16.3409 64.6136 16.3409C63.9735 16.3409 63.4716 16.4811 63.108 16.7614C62.7443 17.0417 62.4886 17.3409 62.3409 17.6591L61.0682 17.2045C61.2955 16.6742 61.5985 16.2614 61.9773 15.9659C62.3598 15.6667 62.7765 15.4583 63.2273 15.3409C63.6818 15.2197 64.1288 15.1591 64.5682 15.1591C64.8485 15.1591 65.1705 15.1932 65.5341 15.2614C65.9015 15.3258 66.2557 15.4602 66.5966 15.6648C66.9413 15.8693 67.2273 16.178 67.4545 16.5909C67.6818 17.0038 67.7955 17.5568 67.7955 18.25V24H66.4545V22.8182H66.3864C66.2955 23.0076 66.1439 23.2102 65.9318 23.4261C65.7197 23.642 65.4375 23.8258 65.0852 23.9773C64.733 24.1288 64.303 24.2045 63.7955 24.2045ZM64 23C64.5303 23 64.9773 22.8958 65.3409 22.6875C65.7083 22.4792 65.9848 22.2102 66.1705 21.8807C66.3598 21.5511 66.4545 21.2045 66.4545 20.8409V19.6136C66.3977 19.6818 66.2727 19.7443 66.0795 19.8011C65.8902 19.8542 65.6705 19.9015 65.4205 19.9432C65.1742 19.9811 64.9337 20.0152 64.6989 20.0455C64.4678 20.072 64.2803 20.0947 64.1364 20.1136C63.7879 20.1591 63.4621 20.233 63.1591 20.3352C62.8598 20.4337 62.6174 20.5833 62.4318 20.7841C62.25 20.9811 62.1591 21.25 62.1591 21.5909C62.1591 22.0568 62.3314 22.4091 62.6761 22.6477C63.0246 22.8826 63.4659 23 64 23ZM71.5838 18.75V24H70.2429V15.2727H71.5384V16.6364H71.652C71.8565 16.1932 72.1671 15.8371 72.5838 15.5682C73.0005 15.2955 73.5384 15.1591 74.1974 15.1591C74.7884 15.1591 75.3054 15.2803 75.7486 15.5227C76.1918 15.7614 76.5365 16.125 76.7827 16.6136C77.0289 17.0985 77.152 17.7121 77.152 18.4545V24H75.8111V18.5455C75.8111 17.8598 75.633 17.3258 75.277 16.9432C74.9209 16.5568 74.4323 16.3636 73.8111 16.3636C73.383 16.3636 73.0005 16.4564 72.6634 16.642C72.33 16.8277 72.0668 17.0985 71.8736 17.4545C71.6804 17.8106 71.5838 18.2424 71.5838 18.75ZM83.125 27.4545C82.4773 27.4545 81.9205 27.3712 81.4545 27.2045C80.9886 27.0417 80.6004 26.8258 80.2898 26.5568C79.983 26.2917 79.7386 26.0076 79.5568 25.7045L80.625 24.9545C80.7462 25.1136 80.8996 25.2955 81.0852 25.5C81.2708 25.7083 81.5246 25.8883 81.8466 26.0398C82.1723 26.1951 82.5985 26.2727 83.125 26.2727C83.8295 26.2727 84.411 26.1023 84.8693 25.7614C85.3277 25.4205 85.5568 24.8864 85.5568 24.1591V22.3864H85.4432C85.3447 22.5455 85.2045 22.7424 85.0227 22.9773C84.8447 23.2083 84.5871 23.4148 84.25 23.5966C83.9167 23.7746 83.4659 23.8636 82.8977 23.8636C82.1932 23.8636 81.5606 23.697 81 23.3636C80.4432 23.0303 80.0019 22.5455 79.6761 21.9091C79.3542 21.2727 79.1932 20.5 79.1932 19.5909C79.1932 18.697 79.3504 17.9186 79.6648 17.2557C79.9792 16.589 80.4167 16.0739 80.9773 15.7102C81.5379 15.3428 82.1856 15.1591 82.9205 15.1591C83.4886 15.1591 83.9394 15.2538 84.2727 15.4432C84.6098 15.6288 84.8674 15.8409 85.0455 16.0795C85.2273 16.3144 85.3674 16.5076 85.4659 16.6591H85.6023V15.2727H86.8977V24.25C86.8977 25 86.7273 25.6098 86.3864 26.0795C86.0492 26.553 85.5947 26.8996 85.0227 27.1193C84.4545 27.3428 83.822 27.4545 83.125 27.4545ZM83.0795 22.6591C83.6174 22.6591 84.072 22.536 84.4432 22.2898C84.8144 22.0436 85.0966 21.6894 85.2898 21.2273C85.483 20.7652 85.5795 20.2121 85.5795 19.5682C85.5795 18.9394 85.4848 18.3845 85.2955 17.9034C85.1061 17.4223 84.8258 17.0455 84.4545 16.7727C84.0833 16.5 83.625 16.3636 83.0795 16.3636C82.5114 16.3636 82.0379 16.5076 81.6591 16.7955C81.2841 17.0833 81.0019 17.4697 80.8125 17.9545C80.6269 18.4394 80.5341 18.9773 80.5341 19.5682C80.5341 20.1742 80.6288 20.7102 80.8182 21.1761C81.0114 21.6383 81.2955 22.0019 81.6705 22.267C82.0492 22.5284 82.5189 22.6591 83.0795 22.6591ZM94.8523 20.4318V15.2727H96.1932V24H94.8523V22.5227H94.7614C94.5568 22.9659 94.2386 23.3428 93.8068 23.6534C93.375 23.9602 92.8295 24.1136 92.1705 24.1136C91.625 24.1136 91.1402 23.9943 90.7159 23.7557C90.2917 23.5133 89.9583 23.1496 89.7159 22.6648C89.4735 22.1761 89.3523 21.5606 89.3523 20.8182V15.2727H90.6932V20.7273C90.6932 21.3636 90.8712 21.8712 91.2273 22.25C91.5871 22.6288 92.0455 22.8182 92.6023 22.8182C92.9356 22.8182 93.2746 22.733 93.6193 22.5625C93.9678 22.392 94.2595 22.1307 94.4943 21.7784C94.733 21.4261 94.8523 20.9773 94.8523 20.4318ZM101.217 24.2045C100.664 24.2045 100.162 24.1004 99.7116 23.892C99.2609 23.6799 98.9029 23.375 98.6378 22.9773C98.3726 22.5758 98.2401 22.0909 98.2401 21.5227C98.2401 21.0227 98.3385 20.6174 98.5355 20.3068C98.7325 19.9924 98.9957 19.7462 99.3253 19.5682C99.6548 19.3902 100.018 19.2576 100.416 19.1705C100.818 19.0795 101.221 19.0076 101.626 18.9545C102.157 18.8864 102.587 18.8352 102.916 18.8011C103.25 18.7633 103.492 18.7008 103.643 18.6136C103.799 18.5265 103.876 18.375 103.876 18.1591V18.1136C103.876 17.553 103.723 17.1174 103.416 16.8068C103.113 16.4962 102.653 16.3409 102.036 16.3409C101.395 16.3409 100.893 16.4811 100.53 16.7614C100.166 17.0417 99.9105 17.3409 99.7628 17.6591L98.4901 17.2045C98.7173 16.6742 99.0204 16.2614 99.3991 15.9659C99.7817 15.6667 100.198 15.4583 100.649 15.3409C101.104 15.2197 101.551 15.1591 101.99 15.1591C102.27 15.1591 102.592 15.1932 102.956 15.2614C103.323 15.3258 103.678 15.4602 104.018 15.6648C104.363 15.8693 104.649 16.178 104.876 16.5909C105.104 17.0038 105.217 17.5568 105.217 18.25V24H103.876V22.8182H103.808C103.717 23.0076 103.566 23.2102 103.354 23.4261C103.142 23.642 102.859 23.8258 102.507 23.9773C102.155 24.1288 101.725 24.2045 101.217 24.2045ZM101.422 23C101.952 23 102.399 22.8958 102.763 22.6875C103.13 22.4792 103.407 22.2102 103.592 21.8807C103.782 21.5511 103.876 21.2045 103.876 20.8409V19.6136C103.82 19.6818 103.695 19.7443 103.501 19.8011C103.312 19.8542 103.092 19.9015 102.842 19.9432C102.596 19.9811 102.356 20.0152 102.121 20.0455C101.89 20.072 101.702 20.0947 101.558 20.1136C101.21 20.1591 100.884 20.233 100.581 20.3352C100.282 20.4337 100.039 20.5833 99.8537 20.7841C99.6719 20.9811 99.581 21.25 99.581 21.5909C99.581 22.0568 99.7533 22.4091 100.098 22.6477C100.446 22.8826 100.888 23 101.422 23ZM111.188 27.4545C110.54 27.4545 109.983 27.3712 109.517 27.2045C109.051 27.0417 108.663 26.8258 108.352 26.5568C108.045 26.2917 107.801 26.0076 107.619 25.7045L108.688 24.9545C108.809 25.1136 108.962 25.2955 109.148 25.5C109.333 25.7083 109.587 25.8883 109.909 26.0398C110.235 26.1951 110.661 26.2727 111.188 26.2727C111.892 26.2727 112.473 26.1023 112.932 25.7614C113.39 25.4205 113.619 24.8864 113.619 24.1591V22.3864H113.506C113.407 22.5455 113.267 22.7424 113.085 22.9773C112.907 23.2083 112.65 23.4148 112.312 23.5966C111.979 23.7746 111.528 23.8636 110.96 23.8636C110.256 23.8636 109.623 23.697 109.062 23.3636C108.506 23.0303 108.064 22.5455 107.739 21.9091C107.417 21.2727 107.256 20.5 107.256 19.5909C107.256 18.697 107.413 17.9186 107.727 17.2557C108.042 16.589 108.479 16.0739 109.04 15.7102C109.6 15.3428 110.248 15.1591 110.983 15.1591C111.551 15.1591 112.002 15.2538 112.335 15.4432C112.672 15.6288 112.93 15.8409 113.108 16.0795C113.29 16.3144 113.43 16.5076 113.528 16.6591H113.665V15.2727H114.96V24.25C114.96 25 114.79 25.6098 114.449 26.0795C114.112 26.553 113.657 26.8996 113.085 27.1193C112.517 27.3428 111.884 27.4545 111.188 27.4545ZM111.142 22.6591C111.68 22.6591 112.134 22.536 112.506 22.2898C112.877 22.0436 113.159 21.6894 113.352 21.2273C113.545 20.7652 113.642 20.2121 113.642 19.5682C113.642 18.9394 113.547 18.3845 113.358 17.9034C113.169 17.4223 112.888 17.0455 112.517 16.7727C112.146 16.5 111.688 16.3636 111.142 16.3636C110.574 16.3636 110.1 16.5076 109.722 16.7955C109.347 17.0833 109.064 17.4697 108.875 17.9545C108.689 18.4394 108.597 18.9773 108.597 19.5682C108.597 20.1742 108.691 20.7102 108.881 21.1761C109.074 21.6383 109.358 22.0019 109.733 22.267C110.112 22.5284 110.581 22.6591 111.142 22.6591ZM121.074 24.1818C120.233 24.1818 119.508 23.9962 118.898 23.625C118.292 23.25 117.824 22.7273 117.494 22.0568C117.169 21.3826 117.006 20.5985 117.006 19.7045C117.006 18.8106 117.169 18.0227 117.494 17.3409C117.824 16.6553 118.282 16.1212 118.869 15.7386C119.46 15.3523 120.15 15.1591 120.938 15.1591C121.392 15.1591 121.841 15.2348 122.284 15.3864C122.727 15.5379 123.131 15.7841 123.494 16.125C123.858 16.4621 124.148 16.9091 124.364 17.4659C124.58 18.0227 124.688 18.7083 124.688 19.5227V20.0909H117.96V18.9318H123.324C123.324 18.4394 123.225 18 123.028 17.6136C122.835 17.2273 122.559 16.9223 122.199 16.6989C121.843 16.4754 121.422 16.3636 120.938 16.3636C120.403 16.3636 119.941 16.4962 119.551 16.7614C119.165 17.0227 118.867 17.3636 118.659 17.7841C118.451 18.2045 118.347 18.6553 118.347 19.1364V19.9091C118.347 20.5682 118.46 21.1269 118.688 21.5852C118.919 22.0398 119.239 22.3864 119.648 22.625C120.057 22.8598 120.532 22.9773 121.074 22.9773C121.426 22.9773 121.744 22.928 122.028 22.8295C122.316 22.7273 122.564 22.5758 122.773 22.375C122.981 22.1705 123.142 21.9167 123.256 21.6136L124.551 21.9773C124.415 22.4167 124.186 22.803 123.864 23.1364C123.542 23.4659 123.144 23.7235 122.67 23.9091C122.197 24.0909 121.665 24.1818 121.074 24.1818ZM137.773 15.2727C137.705 14.697 137.428 14.25 136.943 13.9318C136.458 13.6136 135.864 13.4545 135.159 13.4545C134.644 13.4545 134.193 13.5379 133.807 13.7045C133.424 13.8712 133.125 14.1004 132.909 14.392C132.697 14.6837 132.591 15.0152 132.591 15.3864C132.591 15.697 132.665 15.964 132.812 16.1875C132.964 16.4072 133.157 16.5909 133.392 16.7386C133.627 16.8826 133.873 17.0019 134.131 17.0966C134.388 17.1875 134.625 17.2614 134.841 17.3182L136.023 17.6364C136.326 17.7159 136.663 17.8258 137.034 17.9659C137.409 18.1061 137.767 18.2973 138.108 18.5398C138.453 18.7784 138.737 19.0852 138.96 19.4602C139.184 19.8352 139.295 20.2955 139.295 20.8409C139.295 21.4697 139.131 22.0379 138.801 22.5455C138.475 23.053 137.998 23.4564 137.369 23.7557C136.744 24.0549 135.985 24.2045 135.091 24.2045C134.258 24.2045 133.536 24.0701 132.926 23.8011C132.32 23.5322 131.843 23.1572 131.494 22.6761C131.15 22.1951 130.955 21.6364 130.909 21H132.364C132.402 21.4394 132.549 21.803 132.807 22.0909C133.068 22.375 133.398 22.5871 133.795 22.7273C134.197 22.8636 134.629 22.9318 135.091 22.9318C135.629 22.9318 136.112 22.8447 136.54 22.6705C136.968 22.4924 137.307 22.2462 137.557 21.9318C137.807 21.6136 137.932 21.2424 137.932 20.8182C137.932 20.4318 137.824 20.1174 137.608 19.875C137.392 19.6326 137.108 19.4356 136.756 19.2841C136.403 19.1326 136.023 19 135.614 18.8864L134.182 18.4773C133.273 18.2159 132.553 17.8428 132.023 17.358C131.492 16.8731 131.227 16.2386 131.227 15.4545C131.227 14.803 131.403 14.2348 131.756 13.75C132.112 13.2614 132.589 12.8826 133.188 12.6136C133.79 12.3409 134.462 12.2045 135.205 12.2045C135.955 12.2045 136.621 12.339 137.205 12.608C137.788 12.8731 138.25 13.2367 138.591 13.6989C138.936 14.161 139.117 14.6856 139.136 15.2727H137.773ZM145.089 24.1818C144.249 24.1818 143.523 23.9962 142.913 23.625C142.307 23.25 141.839 22.7273 141.51 22.0568C141.184 21.3826 141.021 20.5985 141.021 19.7045C141.021 18.8106 141.184 18.0227 141.51 17.3409C141.839 16.6553 142.298 16.1212 142.885 15.7386C143.476 15.3523 144.165 15.1591 144.953 15.1591C145.408 15.1591 145.857 15.2348 146.3 15.3864C146.743 15.5379 147.146 15.7841 147.51 16.125C147.874 16.4621 148.163 16.9091 148.379 17.4659C148.595 18.0227 148.703 18.7083 148.703 19.5227V20.0909H141.976V18.9318H147.339C147.339 18.4394 147.241 18 147.044 17.6136C146.851 17.2273 146.574 16.9223 146.214 16.6989C145.858 16.4754 145.438 16.3636 144.953 16.3636C144.419 16.3636 143.957 16.4962 143.567 16.7614C143.18 17.0227 142.883 17.3636 142.675 17.7841C142.466 18.2045 142.362 18.6553 142.362 19.1364V19.9091C142.362 20.5682 142.476 21.1269 142.703 21.5852C142.934 22.0398 143.254 22.3864 143.663 22.625C144.072 22.8598 144.548 22.9773 145.089 22.9773C145.442 22.9773 145.76 22.928 146.044 22.8295C146.332 22.7273 146.58 22.5758 146.788 22.375C146.997 22.1705 147.158 21.9167 147.271 21.6136L148.567 21.9773C148.43 22.4167 148.201 22.803 147.879 23.1364C147.557 23.4659 147.16 23.7235 146.686 23.9091C146.213 24.0909 145.68 24.1818 145.089 24.1818ZM154.538 15.2727V16.4091H150.016V15.2727H154.538ZM151.334 13.1818H152.675V21.5C152.675 21.8788 152.73 22.1629 152.839 22.3523C152.953 22.5379 153.097 22.6629 153.271 22.7273C153.449 22.7879 153.637 22.8182 153.834 22.8182C153.982 22.8182 154.103 22.8106 154.197 22.7955C154.292 22.7765 154.368 22.7614 154.425 22.75L154.697 23.9545C154.607 23.9886 154.48 24.0227 154.317 24.0568C154.154 24.0947 153.947 24.1136 153.697 24.1136C153.319 24.1136 152.947 24.0322 152.584 23.8693C152.224 23.7064 151.925 23.4583 151.686 23.125C151.451 22.7917 151.334 22.3712 151.334 21.8636V13.1818ZM160.351 15.2727V16.4091H155.828V15.2727H160.351ZM157.146 13.1818H158.487V21.5C158.487 21.8788 158.542 22.1629 158.652 22.3523C158.766 22.5379 158.91 22.6629 159.084 22.7273C159.262 22.7879 159.449 22.8182 159.646 22.8182C159.794 22.8182 159.915 22.8106 160.01 22.7955C160.105 22.7765 160.18 22.7614 160.237 22.75L160.51 23.9545C160.419 23.9886 160.292 24.0227 160.129 24.0568C159.966 24.0947 159.76 24.1136 159.51 24.1136C159.131 24.1136 158.76 24.0322 158.396 23.8693C158.036 23.7064 157.737 23.4583 157.499 23.125C157.264 22.7917 157.146 22.3712 157.146 21.8636V13.1818ZM162.368 24V15.2727H163.709V24H162.368ZM163.05 13.8182C162.788 13.8182 162.563 13.7292 162.374 13.5511C162.188 13.3731 162.095 13.1591 162.095 12.9091C162.095 12.6591 162.188 12.4451 162.374 12.267C162.563 12.089 162.788 12 163.05 12C163.311 12 163.535 12.089 163.72 12.267C163.91 12.4451 164.004 12.6591 164.004 12.9091C164.004 13.1591 163.91 13.3731 163.72 13.5511C163.535 13.7292 163.311 13.8182 163.05 13.8182ZM167.506 18.75V24H166.165V15.2727H167.46V16.6364H167.574C167.778 16.1932 168.089 15.8371 168.506 15.5682C168.922 15.2955 169.46 15.1591 170.119 15.1591C170.71 15.1591 171.227 15.2803 171.67 15.5227C172.114 15.7614 172.458 16.125 172.705 16.6136C172.951 17.0985 173.074 17.7121 173.074 18.4545V24H171.733V18.5455C171.733 17.8598 171.555 17.3258 171.199 16.9432C170.843 16.5568 170.354 16.3636 169.733 16.3636C169.305 16.3636 168.922 16.4564 168.585 16.642C168.252 16.8277 167.989 17.0985 167.795 17.4545C167.602 17.8106 167.506 18.2424 167.506 18.75ZM179.047 27.4545C178.399 27.4545 177.842 27.3712 177.376 27.2045C176.911 27.0417 176.522 26.8258 176.212 26.5568C175.905 26.2917 175.661 26.0076 175.479 25.7045L176.547 24.9545C176.668 25.1136 176.821 25.2955 177.007 25.5C177.193 25.7083 177.446 25.8883 177.768 26.0398C178.094 26.1951 178.52 26.2727 179.047 26.2727C179.751 26.2727 180.333 26.1023 180.791 25.7614C181.25 25.4205 181.479 24.8864 181.479 24.1591V22.3864H181.365C181.267 22.5455 181.126 22.7424 180.945 22.9773C180.767 23.2083 180.509 23.4148 180.172 23.5966C179.839 23.7746 179.388 23.8636 178.82 23.8636C178.115 23.8636 177.482 23.697 176.922 23.3636C176.365 23.0303 175.924 22.5455 175.598 21.9091C175.276 21.2727 175.115 20.5 175.115 19.5909C175.115 18.697 175.272 17.9186 175.587 17.2557C175.901 16.589 176.339 16.0739 176.899 15.7102C177.46 15.3428 178.107 15.1591 178.842 15.1591C179.411 15.1591 179.861 15.2538 180.195 15.4432C180.532 15.6288 180.789 15.8409 180.967 16.0795C181.149 16.3144 181.289 16.5076 181.388 16.6591H181.524V15.2727H182.82V24.25C182.82 25 182.649 25.6098 182.308 26.0795C181.971 26.553 181.517 26.8996 180.945 27.1193C180.376 27.3428 179.744 27.4545 179.047 27.4545ZM179.001 22.6591C179.539 22.6591 179.994 22.536 180.365 22.2898C180.736 22.0436 181.018 21.6894 181.212 21.2273C181.405 20.7652 181.501 20.2121 181.501 19.5682C181.501 18.9394 181.407 18.3845 181.217 17.9034C181.028 17.4223 180.748 17.0455 180.376 16.7727C180.005 16.5 179.547 16.3636 179.001 16.3636C178.433 16.3636 177.96 16.5076 177.581 16.7955C177.206 17.0833 176.924 17.4697 176.734 17.9545C176.549 18.4394 176.456 18.9773 176.456 19.5682C176.456 20.1742 176.551 20.7102 176.74 21.1761C176.933 21.6383 177.217 22.0019 177.592 22.267C177.971 22.5284 178.441 22.6591 179.001 22.6591ZM191.456 17.2273L190.251 17.5682C190.176 17.3674 190.064 17.1723 189.916 16.983C189.772 16.7898 189.575 16.6307 189.325 16.5057C189.075 16.3807 188.755 16.3182 188.365 16.3182C187.831 16.3182 187.386 16.4413 187.03 16.6875C186.678 16.9299 186.501 17.2386 186.501 17.6136C186.501 17.947 186.623 18.2102 186.865 18.4034C187.107 18.5966 187.486 18.7576 188.001 18.8864L189.297 19.2045C190.077 19.3939 190.659 19.6837 191.041 20.0739C191.424 20.4602 191.615 20.9583 191.615 21.5682C191.615 22.0682 191.471 22.5152 191.183 22.9091C190.899 23.303 190.501 23.6136 189.99 23.8409C189.479 24.0682 188.884 24.1818 188.206 24.1818C187.316 24.1818 186.579 23.9886 185.996 23.6023C185.412 23.2159 185.043 22.6515 184.888 21.9091L186.161 21.5909C186.282 22.0606 186.511 22.4129 186.848 22.6477C187.189 22.8826 187.634 23 188.183 23C188.808 23 189.304 22.8674 189.672 22.6023C190.043 22.3333 190.229 22.0114 190.229 21.6364C190.229 21.3333 190.123 21.0795 189.911 20.875C189.698 20.6667 189.373 20.5114 188.933 20.4091L187.479 20.0682C186.679 19.8788 186.092 19.5852 185.717 19.1875C185.346 18.786 185.161 18.2841 185.161 17.6818C185.161 17.1894 185.299 16.7538 185.575 16.375C185.856 15.9962 186.236 15.6989 186.717 15.483C187.202 15.267 187.751 15.1591 188.365 15.1591C189.229 15.1591 189.907 15.3485 190.399 15.7273C190.895 16.1061 191.248 16.6061 191.456 17.2273Z" fill="#868686"/>
<circle cx="19" cy="19" r="19" fill="#E8F0F5"/>
<path d="M20.751 12C19.783 17.77 16.07 22.61 11 25.129M11 12H23H11ZM17 10V12V10ZM18.048 21.5C16.5081 19.9059 15.2755 18.0413 14.412 16L18.048 21.5ZM20.5 25H27.5H20.5ZM19 28L24 18L29 28H19Z" stroke="#868686" stroke-width="1.5" stroke-linecap="round" stroke-linejoin="round"/>
</svg>
