<svg width="212" height="38" viewBox="0 0 212 38" fill="none" xmlns="http://www.w3.org/2000/svg">
<path d="M53.2614 24H51.3977L55.5852 12.3636H57.6136L61.8011 24H59.9375L56.6477 14.4773H56.5568L53.2614 24ZM53.5739 19.4432H59.6193V20.9205H53.5739V19.4432ZM63.3452 27.2727V15.2727H65.0043V16.6875H65.1463C65.2448 16.5057 65.3868 16.2955 65.5724 16.0568C65.758 15.8182 66.0156 15.6098 66.3452 15.4318C66.6747 15.25 67.1103 15.1591 67.652 15.1591C68.3565 15.1591 68.9853 15.3371 69.5384 15.6932C70.0914 16.0492 70.5251 16.5625 70.8395 17.233C71.1577 17.9034 71.3168 18.7102 71.3168 19.6534C71.3168 20.5966 71.1596 21.4053 70.8452 22.0795C70.5308 22.75 70.099 23.267 69.5497 23.6307C69.0005 23.9905 68.3736 24.1705 67.669 24.1705C67.1387 24.1705 66.705 24.0814 66.3679 23.9034C66.0346 23.7254 65.7732 23.517 65.5838 23.2784C65.3944 23.0398 65.2486 22.8277 65.1463 22.642H65.044V27.2727H63.3452ZM65.0099 19.6364C65.0099 20.25 65.099 20.7879 65.277 21.25C65.455 21.7121 65.7126 22.0739 66.0497 22.3352C66.3868 22.5928 66.7997 22.7216 67.2884 22.7216C67.7959 22.7216 68.2202 22.5871 68.5611 22.3182C68.902 22.0455 69.1596 21.6761 69.3338 21.2102C69.5118 20.7443 69.6009 20.2197 69.6009 19.6364C69.6009 19.0606 69.5137 18.5436 69.3395 18.0852C69.169 17.6269 68.9115 17.2652 68.5668 17C68.2259 16.7348 67.7997 16.6023 67.2884 16.6023C66.7959 16.6023 66.3793 16.7292 66.0384 16.983C65.7012 17.2367 65.4455 17.5909 65.2713 18.0455C65.0971 18.5 65.0099 19.0303 65.0099 19.6364ZM73.2202 27.2727V15.2727H74.8793V16.6875H75.0213C75.1198 16.5057 75.2618 16.2955 75.4474 16.0568C75.633 15.8182 75.8906 15.6098 76.2202 15.4318C76.5497 15.25 76.9853 15.1591 77.527 15.1591C78.2315 15.1591 78.8603 15.3371 79.4134 15.6932C79.9664 16.0492 80.4001 16.5625 80.7145 17.233C81.0327 17.9034 81.1918 18.7102 81.1918 19.6534C81.1918 20.5966 81.0346 21.4053 80.7202 22.0795C80.4058 22.75 79.974 23.267 79.4247 23.6307C78.8755 23.9905 78.2486 24.1705 77.544 24.1705C77.0137 24.1705 76.58 24.0814 76.2429 23.9034C75.9096 23.7254 75.6482 23.517 75.4588 23.2784C75.2694 23.0398 75.1236 22.8277 75.0213 22.642H74.919V27.2727H73.2202ZM74.8849 19.6364C74.8849 20.25 74.974 20.7879 75.152 21.25C75.33 21.7121 75.5876 22.0739 75.9247 22.3352C76.2618 22.5928 76.6747 22.7216 77.1634 22.7216C77.6709 22.7216 78.0952 22.5871 78.4361 22.3182C78.777 22.0455 79.0346 21.6761 79.2088 21.2102C79.3868 20.7443 79.4759 20.2197 79.4759 19.6364C79.4759 19.0606 79.3887 18.5436 79.2145 18.0852C79.044 17.6269 78.7865 17.2652 78.4418 17C78.1009 16.7348 77.6747 16.6023 77.1634 16.6023C76.6709 16.6023 76.2543 16.7292 75.9134 16.983C75.5762 17.2367 75.3205 17.5909 75.1463 18.0455C74.9721 18.5 74.8849 19.0303 74.8849 19.6364ZM86.8565 24.1761C85.9967 24.1761 85.2562 23.9924 84.6349 23.625C84.0175 23.2538 83.5402 22.733 83.2031 22.0625C82.8698 21.3883 82.7031 20.5985 82.7031 19.6932C82.7031 18.7992 82.8698 18.0114 83.2031 17.3295C83.5402 16.6477 84.0099 16.1155 84.6122 15.733C85.2183 15.3504 85.9266 15.1591 86.7372 15.1591C87.2296 15.1591 87.7069 15.2405 88.169 15.4034C88.6312 15.5663 89.0459 15.822 89.4134 16.1705C89.7808 16.5189 90.0705 16.9716 90.2827 17.5284C90.4948 18.0814 90.6009 18.7538 90.6009 19.5455V20.1477H83.6634V18.875H88.9361C88.9361 18.428 88.8452 18.0322 88.6634 17.6875C88.4815 17.339 88.2259 17.0644 87.8963 16.8636C87.5705 16.6629 87.188 16.5625 86.7486 16.5625C86.2713 16.5625 85.8546 16.6799 85.4986 16.9148C85.1463 17.1458 84.8736 17.4489 84.6804 17.8239C84.491 18.1951 84.3963 18.5985 84.3963 19.0341V20.0284C84.3963 20.6117 84.4986 21.108 84.7031 21.517C84.9115 21.9261 85.2012 22.2386 85.5724 22.4545C85.9437 22.6667 86.3774 22.7727 86.8736 22.7727C87.1955 22.7727 87.4891 22.7273 87.7543 22.6364C88.0194 22.5417 88.2486 22.4015 88.4418 22.2159C88.6349 22.0303 88.7827 21.8011 88.8849 21.5284L90.4929 21.8182C90.3641 22.2917 90.133 22.7064 89.7997 23.0625C89.4702 23.4148 89.0554 23.6894 88.5554 23.8864C88.0592 24.0795 87.4929 24.1761 86.8565 24.1761ZM95.0256 24.1932C94.4725 24.1932 93.9725 24.0909 93.5256 23.8864C93.0786 23.678 92.7244 23.3769 92.4631 22.983C92.2055 22.589 92.0767 22.1061 92.0767 21.5341C92.0767 21.0417 92.1714 20.6364 92.3608 20.3182C92.5502 20 92.8059 19.7481 93.1278 19.5625C93.4498 19.3769 93.8097 19.2367 94.2074 19.142C94.6051 19.0473 95.0104 18.9754 95.4233 18.9261C95.946 18.8655 96.3703 18.8163 96.696 18.7784C97.0218 18.7367 97.2585 18.6705 97.4062 18.5795C97.554 18.4886 97.6278 18.3409 97.6278 18.1364V18.0966C97.6278 17.6004 97.4877 17.2159 97.2074 16.9432C96.9309 16.6705 96.518 16.5341 95.9688 16.5341C95.3968 16.5341 94.946 16.661 94.6165 16.9148C94.2907 17.1648 94.0653 17.4432 93.9403 17.75L92.3438 17.3864C92.5331 16.8561 92.8097 16.428 93.1733 16.1023C93.5407 15.7727 93.9631 15.5341 94.4403 15.3864C94.9176 15.2348 95.4195 15.1591 95.946 15.1591C96.2945 15.1591 96.6638 15.2008 97.054 15.2841C97.4479 15.3636 97.8153 15.5114 98.1562 15.7273C98.5009 15.9432 98.7831 16.2519 99.0028 16.6534C99.2225 17.0511 99.3324 17.5682 99.3324 18.2045V24H97.6733V22.8068H97.6051C97.4953 23.0265 97.3305 23.2424 97.1108 23.4545C96.8911 23.6667 96.6089 23.8428 96.2642 23.983C95.9195 24.1231 95.5066 24.1932 95.0256 24.1932ZM95.3949 22.8295C95.8646 22.8295 96.2661 22.7367 96.5994 22.5511C96.9366 22.3655 97.1922 22.1231 97.3665 21.8239C97.5445 21.5208 97.6335 21.197 97.6335 20.8523V19.7273C97.5729 19.7879 97.4555 19.8447 97.2812 19.8977C97.1108 19.947 96.9157 19.9905 96.696 20.0284C96.4763 20.0625 96.2623 20.0947 96.054 20.125C95.8456 20.1515 95.6714 20.1742 95.5312 20.1932C95.2017 20.2348 94.9006 20.3049 94.6278 20.4034C94.3589 20.5019 94.143 20.6439 93.9801 20.8295C93.821 21.0114 93.7415 21.2538 93.7415 21.5568C93.7415 21.9773 93.8968 22.2955 94.2074 22.5114C94.518 22.7235 94.9138 22.8295 95.3949 22.8295ZM101.595 24V15.2727H103.237V16.6591H103.328C103.487 16.1894 103.768 15.8201 104.169 15.5511C104.574 15.2784 105.033 15.142 105.544 15.142C105.65 15.142 105.775 15.1458 105.919 15.1534C106.067 15.161 106.182 15.1705 106.266 15.1818V16.8068C106.197 16.7879 106.076 16.767 105.902 16.7443C105.728 16.7178 105.554 16.7045 105.379 16.7045C104.978 16.7045 104.62 16.7898 104.305 16.9602C103.995 17.1269 103.749 17.3598 103.567 17.6591C103.385 17.9545 103.294 18.2917 103.294 18.6705V24H101.595ZM110.197 24.1932C109.644 24.1932 109.144 24.0909 108.697 23.8864C108.25 23.678 107.896 23.3769 107.635 22.983C107.377 22.589 107.249 22.1061 107.249 21.5341C107.249 21.0417 107.343 20.6364 107.533 20.3182C107.722 20 107.978 19.7481 108.3 19.5625C108.622 19.3769 108.982 19.2367 109.379 19.142C109.777 19.0473 110.182 18.9754 110.595 18.9261C111.118 18.8655 111.542 18.8163 111.868 18.7784C112.194 18.7367 112.43 18.6705 112.578 18.5795C112.726 18.4886 112.8 18.3409 112.8 18.1364V18.0966C112.8 17.6004 112.66 17.2159 112.379 16.9432C112.103 16.6705 111.69 16.5341 111.141 16.5341C110.569 16.5341 110.118 16.661 109.788 16.9148C109.463 17.1648 109.237 17.4432 109.112 17.75L107.516 17.3864C107.705 16.8561 107.982 16.428 108.345 16.1023C108.713 15.7727 109.135 15.5341 109.612 15.3864C110.089 15.2348 110.591 15.1591 111.118 15.1591C111.466 15.1591 111.836 15.2008 112.226 15.2841C112.62 15.3636 112.987 15.5114 113.328 15.7273C113.673 15.9432 113.955 16.2519 114.175 16.6534C114.394 17.0511 114.504 17.5682 114.504 18.2045V24H112.845V22.8068H112.777C112.667 23.0265 112.502 23.2424 112.283 23.4545C112.063 23.6667 111.781 23.8428 111.436 23.983C111.091 24.1231 110.679 24.1932 110.197 24.1932ZM110.567 22.8295C111.036 22.8295 111.438 22.7367 111.771 22.5511C112.108 22.3655 112.364 22.1231 112.538 21.8239C112.716 21.5208 112.805 21.197 112.805 20.8523V19.7273C112.745 19.7879 112.627 19.8447 112.453 19.8977C112.283 19.947 112.088 19.9905 111.868 20.0284C111.648 20.0625 111.434 20.0947 111.226 20.125C111.018 20.1515 110.843 20.1742 110.703 20.1932C110.374 20.2348 110.072 20.3049 109.8 20.4034C109.531 20.5019 109.315 20.6439 109.152 20.8295C108.993 21.0114 108.913 21.2538 108.913 21.5568C108.913 21.9773 109.069 22.2955 109.379 22.5114C109.69 22.7235 110.086 22.8295 110.567 22.8295ZM118.466 18.8182V24H116.767V15.2727H118.398V16.6932H118.506C118.706 16.2311 119.021 15.8598 119.449 15.5795C119.881 15.2992 120.424 15.1591 121.08 15.1591C121.674 15.1591 122.195 15.2841 122.642 15.5341C123.089 15.7803 123.436 16.1477 123.682 16.6364C123.928 17.125 124.051 17.7292 124.051 18.4489V24H122.352V18.6534C122.352 18.0208 122.188 17.5265 121.858 17.1705C121.528 16.8106 121.076 16.6307 120.5 16.6307C120.106 16.6307 119.756 16.7159 119.449 16.8864C119.146 17.0568 118.905 17.3068 118.727 17.6364C118.553 17.9621 118.466 18.3561 118.466 18.8182ZM130.006 24.1761C129.161 24.1761 128.434 23.9848 127.824 23.6023C127.218 23.2159 126.752 22.6837 126.426 22.0057C126.1 21.3277 125.938 20.5511 125.938 19.6761C125.938 18.7898 126.104 18.0076 126.438 17.3295C126.771 16.6477 127.241 16.1155 127.847 15.733C128.453 15.3504 129.167 15.1591 129.989 15.1591C130.652 15.1591 131.242 15.2822 131.761 15.5284C132.28 15.7708 132.699 16.1117 133.017 16.5511C133.339 16.9905 133.53 17.5038 133.591 18.0909H131.938C131.847 17.6818 131.638 17.3295 131.312 17.0341C130.991 16.7386 130.559 16.5909 130.017 16.5909C129.544 16.5909 129.129 16.7159 128.773 16.9659C128.42 17.2121 128.146 17.5644 127.949 18.0227C127.752 18.4773 127.653 19.0152 127.653 19.6364C127.653 20.2727 127.75 20.822 127.943 21.2841C128.136 21.7462 128.409 22.1042 128.761 22.358C129.117 22.6117 129.536 22.7386 130.017 22.7386C130.339 22.7386 130.631 22.6799 130.892 22.5625C131.157 22.4413 131.379 22.2689 131.557 22.0455C131.739 21.822 131.866 21.553 131.938 21.2386H133.591C133.53 21.803 133.347 22.3068 133.04 22.75C132.733 23.1932 132.322 23.5417 131.807 23.7955C131.295 24.0492 130.695 24.1761 130.006 24.1761ZM139.169 24.1761C138.309 24.1761 137.569 23.9924 136.947 23.625C136.33 23.2538 135.853 22.733 135.516 22.0625C135.182 21.3883 135.016 20.5985 135.016 19.6932C135.016 18.7992 135.182 18.0114 135.516 17.3295C135.853 16.6477 136.322 16.1155 136.925 15.733C137.531 15.3504 138.239 15.1591 139.05 15.1591C139.542 15.1591 140.019 15.2405 140.482 15.4034C140.944 15.5663 141.358 15.822 141.726 16.1705C142.093 16.5189 142.383 16.9716 142.595 17.5284C142.807 18.0814 142.913 18.7538 142.913 19.5455V20.1477H135.976V18.875H141.249C141.249 18.428 141.158 18.0322 140.976 17.6875C140.794 17.339 140.538 17.0644 140.209 16.8636C139.883 16.6629 139.5 16.5625 139.061 16.5625C138.584 16.5625 138.167 16.6799 137.811 16.9148C137.459 17.1458 137.186 17.4489 136.993 17.8239C136.804 18.1951 136.709 18.5985 136.709 19.0341V20.0284C136.709 20.6117 136.811 21.108 137.016 21.517C137.224 21.9261 137.514 22.2386 137.885 22.4545C138.256 22.6667 138.69 22.7727 139.186 22.7727C139.508 22.7727 139.802 22.7273 140.067 22.6364C140.332 22.5417 140.561 22.4015 140.754 22.2159C140.947 22.0303 141.095 21.8011 141.197 21.5284L142.805 21.8182C142.677 22.2917 142.446 22.7064 142.112 23.0625C141.783 23.4148 141.368 23.6894 140.868 23.8864C140.372 24.0795 139.805 24.1761 139.169 24.1761ZM155.516 15.4205C155.455 14.8826 155.205 14.4659 154.766 14.1705C154.326 13.8712 153.773 13.7216 153.107 13.7216C152.629 13.7216 152.216 13.7973 151.868 13.9489C151.519 14.0966 151.249 14.3011 151.055 14.5625C150.866 14.8201 150.771 15.1136 150.771 15.4432C150.771 15.7197 150.836 15.9583 150.964 16.1591C151.097 16.3598 151.269 16.5284 151.482 16.6648C151.697 16.7973 151.929 16.9091 152.175 17C152.421 17.0871 152.658 17.1591 152.885 17.2159L154.021 17.5114C154.393 17.6023 154.773 17.7254 155.163 17.8807C155.554 18.036 155.915 18.2405 156.249 18.4943C156.582 18.7481 156.851 19.0625 157.055 19.4375C157.264 19.8125 157.368 20.2614 157.368 20.7841C157.368 21.4432 157.197 22.0284 156.857 22.5398C156.519 23.0511 156.029 23.4545 155.385 23.75C154.745 24.0455 153.97 24.1932 153.061 24.1932C152.19 24.1932 151.436 24.0549 150.8 23.7784C150.163 23.5019 149.665 23.1098 149.305 22.6023C148.946 22.0909 148.747 21.4848 148.709 20.7841H150.47C150.504 21.2045 150.641 21.5549 150.879 21.8352C151.122 22.1117 151.43 22.3182 151.805 22.4545C152.184 22.5871 152.599 22.6534 153.05 22.6534C153.546 22.6534 153.987 22.5758 154.374 22.4205C154.764 22.2614 155.071 22.0417 155.294 21.7614C155.518 21.4773 155.629 21.1458 155.629 20.767C155.629 20.4223 155.531 20.1402 155.334 19.9205C155.141 19.7008 154.877 19.5189 154.544 19.375C154.214 19.2311 153.841 19.1042 153.425 18.9943L152.05 18.6193C151.118 18.3655 150.379 17.9924 149.834 17.5C149.292 17.0076 149.021 16.3561 149.021 15.5455C149.021 14.875 149.203 14.2898 149.567 13.7898C149.93 13.2898 150.423 12.9015 151.044 12.625C151.665 12.3447 152.366 12.2045 153.146 12.2045C153.934 12.2045 154.629 12.3428 155.232 12.6193C155.838 12.8958 156.315 13.2765 156.663 13.7614C157.012 14.2424 157.194 14.7955 157.209 15.4205H155.516ZM163.091 24.1761C162.231 24.1761 161.491 23.9924 160.869 23.625C160.252 23.2538 159.775 22.733 159.438 22.0625C159.104 21.3883 158.938 20.5985 158.938 19.6932C158.938 18.7992 159.104 18.0114 159.438 17.3295C159.775 16.6477 160.244 16.1155 160.847 15.733C161.453 15.3504 162.161 15.1591 162.972 15.1591C163.464 15.1591 163.941 15.2405 164.403 15.4034C164.866 15.5663 165.28 15.822 165.648 16.1705C166.015 16.5189 166.305 16.9716 166.517 17.5284C166.729 18.0814 166.835 18.7538 166.835 19.5455V20.1477H159.898V18.875H165.17C165.17 18.428 165.08 18.0322 164.898 17.6875C164.716 17.339 164.46 17.0644 164.131 16.8636C163.805 16.6629 163.422 16.5625 162.983 16.5625C162.506 16.5625 162.089 16.6799 161.733 16.9148C161.381 17.1458 161.108 17.4489 160.915 17.8239C160.725 18.1951 160.631 18.5985 160.631 19.0341V20.0284C160.631 20.6117 160.733 21.108 160.938 21.517C161.146 21.9261 161.436 22.2386 161.807 22.4545C162.178 22.6667 162.612 22.7727 163.108 22.7727C163.43 22.7727 163.723 22.7273 163.989 22.6364C164.254 22.5417 164.483 22.4015 164.676 22.2159C164.869 22.0303 165.017 21.8011 165.119 21.5284L166.727 21.8182C166.598 22.2917 166.367 22.7064 166.034 23.0625C165.705 23.4148 165.29 23.6894 164.79 23.8864C164.294 24.0795 163.727 24.1761 163.091 24.1761ZM172.794 15.2727V16.6364H168.027V15.2727H172.794ZM169.305 13.1818H171.004V21.4375C171.004 21.767 171.054 22.0152 171.152 22.1818C171.25 22.3447 171.377 22.4564 171.533 22.517C171.692 22.5739 171.864 22.6023 172.05 22.6023C172.186 22.6023 172.305 22.5928 172.408 22.5739C172.51 22.5549 172.589 22.5398 172.646 22.5284L172.953 23.9318C172.855 23.9697 172.714 24.0076 172.533 24.0455C172.351 24.0871 172.124 24.1098 171.851 24.1136C171.404 24.1212 170.987 24.0417 170.601 23.875C170.214 23.7083 169.902 23.4508 169.663 23.1023C169.425 22.7538 169.305 22.3163 169.305 21.7898V13.1818ZM178.747 15.2727V16.6364H173.98V15.2727H178.747ZM175.259 13.1818H176.957V21.4375C176.957 21.767 177.007 22.0152 177.105 22.1818C177.204 22.3447 177.33 22.4564 177.486 22.517C177.645 22.5739 177.817 22.6023 178.003 22.6023C178.139 22.6023 178.259 22.5928 178.361 22.5739C178.463 22.5549 178.543 22.5398 178.599 22.5284L178.906 23.9318C178.808 23.9697 178.668 24.0076 178.486 24.0455C178.304 24.0871 178.077 24.1098 177.804 24.1136C177.357 24.1212 176.94 24.0417 176.554 23.875C176.168 23.7083 175.855 23.4508 175.616 23.1023C175.378 22.7538 175.259 22.3163 175.259 21.7898V13.1818ZM180.626 24V15.2727H182.325V24H180.626ZM181.484 13.9261C181.189 13.9261 180.935 13.8277 180.723 13.6307C180.515 13.4299 180.411 13.1913 180.411 12.9148C180.411 12.6345 180.515 12.3958 180.723 12.1989C180.935 11.9981 181.189 11.8977 181.484 11.8977C181.78 11.8977 182.032 11.9981 182.24 12.1989C182.452 12.3958 182.558 12.6345 182.558 12.9148C182.558 13.1913 182.452 13.4299 182.24 13.6307C182.032 13.8277 181.78 13.9261 181.484 13.9261ZM186.31 18.8182V24H184.611V15.2727H186.241V16.6932H186.349C186.55 16.2311 186.865 15.8598 187.293 15.5795C187.724 15.2992 188.268 15.1591 188.923 15.1591C189.518 15.1591 190.039 15.2841 190.486 15.5341C190.933 15.7803 191.279 16.1477 191.526 16.6364C191.772 17.125 191.895 17.7292 191.895 18.4489V24H190.196V18.6534C190.196 18.0208 190.031 17.5265 189.702 17.1705C189.372 16.8106 188.92 16.6307 188.344 16.6307C187.95 16.6307 187.599 16.7159 187.293 16.8864C186.99 17.0568 186.749 17.3068 186.571 17.6364C186.397 17.9621 186.31 18.3561 186.31 18.8182ZM197.832 27.4545C197.139 27.4545 196.543 27.3636 196.043 27.1818C195.546 27 195.141 26.7595 194.827 26.4602C194.512 26.161 194.277 25.8333 194.122 25.4773L195.582 24.875C195.685 25.0417 195.821 25.2178 195.991 25.4034C196.166 25.5928 196.401 25.7538 196.696 25.8864C196.995 26.0189 197.38 26.0852 197.849 26.0852C198.493 26.0852 199.026 25.928 199.446 25.6136C199.866 25.303 200.077 24.8068 200.077 24.125V22.4091H199.969C199.866 22.5947 199.719 22.8011 199.526 23.0284C199.336 23.2557 199.075 23.4527 198.741 23.6193C198.408 23.786 197.974 23.8693 197.44 23.8693C196.751 23.8693 196.13 23.7083 195.577 23.3864C195.027 23.0606 194.592 22.5814 194.27 21.9489C193.952 21.3125 193.793 20.5303 193.793 19.6023C193.793 18.6742 193.95 17.8788 194.264 17.2159C194.582 16.553 195.018 16.0455 195.571 15.6932C196.124 15.3371 196.751 15.1591 197.452 15.1591C197.993 15.1591 198.431 15.25 198.764 15.4318C199.098 15.6098 199.357 15.8182 199.543 16.0568C199.732 16.2955 199.878 16.5057 199.98 16.6875H200.105V15.2727H201.77V24.1932C201.77 24.9432 201.596 25.5587 201.247 26.0398C200.899 26.5208 200.427 26.8769 199.832 27.108C199.241 27.339 198.575 27.4545 197.832 27.4545ZM197.815 22.4602C198.304 22.4602 198.717 22.3466 199.054 22.1193C199.395 21.8883 199.652 21.5587 199.827 21.1307C200.005 20.6989 200.094 20.1818 200.094 19.5795C200.094 18.9924 200.007 18.4754 199.832 18.0284C199.658 17.5814 199.402 17.233 199.065 16.983C198.728 16.7292 198.312 16.6023 197.815 16.6023C197.304 16.6023 196.878 16.7348 196.537 17C196.196 17.2614 195.938 17.6174 195.764 18.0682C195.594 18.5189 195.509 19.0227 195.509 19.5795C195.509 20.1515 195.596 20.6534 195.77 21.0852C195.944 21.517 196.202 21.8542 196.543 22.0966C196.887 22.339 197.312 22.4602 197.815 22.4602ZM210.588 17.4034L209.048 17.6761C208.984 17.4792 208.882 17.2917 208.741 17.1136C208.605 16.9356 208.42 16.7898 208.185 16.6761C207.95 16.5625 207.656 16.5057 207.304 16.5057C206.823 16.5057 206.421 16.6136 206.099 16.8295C205.777 17.0417 205.616 17.3163 205.616 17.6534C205.616 17.9451 205.724 18.1799 205.94 18.358C206.156 18.536 206.505 18.6818 206.986 18.7955L208.372 19.1136C209.175 19.2992 209.774 19.5852 210.168 19.9716C210.562 20.358 210.759 20.8598 210.759 21.4773C210.759 22 210.607 22.4659 210.304 22.875C210.005 23.2803 209.586 23.5985 209.048 23.8295C208.514 24.0606 207.895 24.1761 207.19 24.1761C206.213 24.1761 205.416 23.9678 204.798 23.5511C204.181 23.1307 203.802 22.5341 203.662 21.7614L205.304 21.5114C205.406 21.9394 205.616 22.2633 205.935 22.483C206.253 22.6989 206.668 22.8068 207.179 22.8068C207.736 22.8068 208.181 22.6913 208.514 22.4602C208.848 22.2254 209.014 21.9394 209.014 21.6023C209.014 21.3295 208.912 21.1004 208.707 20.9148C208.507 20.7292 208.198 20.589 207.781 20.4943L206.304 20.1705C205.49 19.9848 204.887 19.6894 204.497 19.2841C204.111 18.8788 203.918 18.3655 203.918 17.7443C203.918 17.2292 204.062 16.7784 204.349 16.392C204.637 16.0057 205.035 15.7045 205.543 15.4886C206.05 15.2689 206.632 15.1591 207.287 15.1591C208.23 15.1591 208.973 15.3636 209.514 15.7727C210.056 16.178 210.414 16.7216 210.588 17.4034Z" fill="#1FA45B"/>
<circle cx="19" cy="19" r="19" fill="#E8F0F5"/>
<path d="M15 9.75H12C10.7574 9.75 9.75 10.7574 9.75 12V15C9.75 16.2426 10.7574 17.25 12 17.25H15C16.2426 17.25 17.25 16.2426 17.25 15V12C17.25 10.7574 16.2426 9.75 15 9.75Z" stroke="#1FA45B" stroke-width="1.5"/>
<path d="M26 9.75H23C21.7574 9.75 20.75 10.7574 20.75 12V15C20.75 16.2426 21.7574 17.25 23 17.25H26C27.2426 17.25 28.25 16.2426 28.25 15V12C28.25 10.7574 27.2426 9.75 26 9.75Z" stroke="#1FA45B" stroke-width="1.5"/>
<path d="M26 20.75H23C21.7574 20.75 20.75 21.7574 20.75 23V26C20.75 27.2426 21.7574 28.25 23 28.25H26C27.2426 28.25 28.25 27.2426 28.25 26V23C28.25 21.7574 27.2426 20.75 26 20.75Z" stroke="#1FA45B" stroke-width="1.5"/>
<path d="M15 20.75H12C10.7574 20.75 9.75 21.7574 9.75 23V26C9.75 27.2426 10.7574 28.25 12 28.25H15C16.2426 28.25 17.25 27.2426 17.25 26V23C17.25 21.7574 16.2426 20.75 15 20.75Z" stroke="#1FA45B" stroke-width="1.5"/>
</svg>
