<svg width="177" height="38" viewBox="0 0 177 38" fill="none" xmlns="http://www.w3.org/2000/svg">
<path d="M60.3636 16C60.2386 15.6174 60.0739 15.2746 59.8693 14.9716C59.6686 14.6648 59.428 14.4034 59.1477 14.1875C58.8712 13.9716 58.5568 13.8068 58.2045 13.6932C57.8523 13.5795 57.4659 13.5227 57.0455 13.5227C56.3561 13.5227 55.7292 13.7008 55.1648 14.0568C54.6004 14.4129 54.1515 14.9375 53.8182 15.6307C53.4848 16.3239 53.3182 17.1742 53.3182 18.1818C53.3182 19.1894 53.4867 20.0398 53.8239 20.733C54.161 21.4261 54.6174 21.9508 55.1932 22.3068C55.7689 22.6629 56.4167 22.8409 57.1364 22.8409C57.803 22.8409 58.3902 22.6989 58.8977 22.4148C59.4091 22.1269 59.8068 21.7216 60.0909 21.1989C60.3788 20.6723 60.5227 20.053 60.5227 19.3409L60.9545 19.4318H57.4545V18.1818H61.8864V19.4318C61.8864 20.3902 61.6818 21.2235 61.2727 21.9318C60.8674 22.6402 60.3068 23.1894 59.5909 23.5795C58.8788 23.9659 58.0606 24.1591 57.1364 24.1591C56.1061 24.1591 55.2008 23.9167 54.4205 23.4318C53.6439 22.947 53.0379 22.2576 52.6023 21.3636C52.1705 20.4697 51.9545 19.4091 51.9545 18.1818C51.9545 17.2614 52.0777 16.4337 52.3239 15.6989C52.5739 14.9602 52.9261 14.3314 53.3807 13.8125C53.8352 13.2936 54.3731 12.8958 54.9943 12.6193C55.6155 12.3428 56.2992 12.2045 57.0455 12.2045C57.6591 12.2045 58.2311 12.2973 58.7614 12.483C59.2955 12.6648 59.7708 12.9242 60.1875 13.2614C60.608 13.5947 60.9583 13.9943 61.2386 14.4602C61.5189 14.9223 61.7121 15.4356 61.8182 16H60.3636ZM67.777 24.1818C66.9361 24.1818 66.2107 23.9962 65.6009 23.625C64.9948 23.25 64.527 22.7273 64.1974 22.0568C63.8717 21.3826 63.7088 20.5985 63.7088 19.7045C63.7088 18.8106 63.8717 18.0227 64.1974 17.3409C64.527 16.6553 64.9853 16.1212 65.5724 15.7386C66.1634 15.3523 66.8527 15.1591 67.6406 15.1591C68.0952 15.1591 68.544 15.2348 68.9872 15.3864C69.4304 15.5379 69.8338 15.7841 70.1974 16.125C70.5611 16.4621 70.8509 16.9091 71.0668 17.4659C71.2827 18.0227 71.3906 18.7083 71.3906 19.5227V20.0909H64.6634V18.9318H70.027C70.027 18.4394 69.9285 18 69.7315 17.6136C69.5384 17.2273 69.2618 16.9223 68.902 16.6989C68.5459 16.4754 68.1255 16.3636 67.6406 16.3636C67.1065 16.3636 66.6444 16.4962 66.2543 16.7614C65.8679 17.0227 65.5705 17.3636 65.3622 17.7841C65.1539 18.2045 65.0497 18.6553 65.0497 19.1364V19.9091C65.0497 20.5682 65.1634 21.1269 65.3906 21.5852C65.6217 22.0398 65.9418 22.3864 66.3509 22.625C66.7599 22.8598 67.2353 22.9773 67.777 22.9773C68.1293 22.9773 68.4474 22.928 68.7315 22.8295C69.0194 22.7273 69.2675 22.5758 69.4759 22.375C69.6842 22.1705 69.8452 21.9167 69.9588 21.6136L71.2543 21.9773C71.1179 22.4167 70.8887 22.803 70.5668 23.1364C70.2448 23.4659 69.8471 23.7235 69.3736 23.9091C68.9001 24.0909 68.3679 24.1818 67.777 24.1818ZM74.7713 18.75V24H73.4304V15.2727H74.7259V16.6364H74.8395C75.044 16.1932 75.3546 15.8371 75.7713 15.5682C76.188 15.2955 76.7259 15.1591 77.3849 15.1591C77.9759 15.1591 78.4929 15.2803 78.9361 15.5227C79.3793 15.7614 79.724 16.125 79.9702 16.6136C80.2164 17.0985 80.3395 17.7121 80.3395 18.4545V24H78.9986V18.5455C78.9986 17.8598 78.8205 17.3258 78.4645 16.9432C78.1084 16.5568 77.6198 16.3636 76.9986 16.3636C76.5705 16.3636 76.188 16.4564 75.8509 16.642C75.5175 16.8277 75.2543 17.0985 75.0611 17.4545C74.8679 17.8106 74.7713 18.2424 74.7713 18.75ZM86.4489 24.1818C85.608 24.1818 84.8826 23.9962 84.2727 23.625C83.6667 23.25 83.1989 22.7273 82.8693 22.0568C82.5436 21.3826 82.3807 20.5985 82.3807 19.7045C82.3807 18.8106 82.5436 18.0227 82.8693 17.3409C83.1989 16.6553 83.6572 16.1212 84.2443 15.7386C84.8352 15.3523 85.5246 15.1591 86.3125 15.1591C86.767 15.1591 87.2159 15.2348 87.6591 15.3864C88.1023 15.5379 88.5057 15.7841 88.8693 16.125C89.233 16.4621 89.5227 16.9091 89.7386 17.4659C89.9545 18.0227 90.0625 18.7083 90.0625 19.5227V20.0909H83.3352V18.9318H88.6989C88.6989 18.4394 88.6004 18 88.4034 17.6136C88.2102 17.2273 87.9337 16.9223 87.5739 16.6989C87.2178 16.4754 86.7973 16.3636 86.3125 16.3636C85.7784 16.3636 85.3163 16.4962 84.9261 16.7614C84.5398 17.0227 84.2424 17.3636 84.0341 17.7841C83.8258 18.2045 83.7216 18.6553 83.7216 19.1364V19.9091C83.7216 20.5682 83.8352 21.1269 84.0625 21.5852C84.2936 22.0398 84.6136 22.3864 85.0227 22.625C85.4318 22.8598 85.9072 22.9773 86.4489 22.9773C86.8011 22.9773 87.1193 22.928 87.4034 22.8295C87.6913 22.7273 87.9394 22.5758 88.1477 22.375C88.3561 22.1705 88.517 21.9167 88.6307 21.6136L89.9261 21.9773C89.7898 22.4167 89.5606 22.803 89.2386 23.1364C88.9167 23.4659 88.5189 23.7235 88.0455 23.9091C87.572 24.0909 87.0398 24.1818 86.4489 24.1818ZM92.1023 24V15.2727H93.3977V16.5909H93.4886C93.6477 16.1591 93.9356 15.8087 94.3523 15.5398C94.7689 15.2708 95.2386 15.1364 95.7614 15.1364C95.8598 15.1364 95.983 15.1383 96.1307 15.142C96.2784 15.1458 96.3902 15.1515 96.4659 15.1591V16.5227C96.4205 16.5114 96.3163 16.4943 96.1534 16.4716C95.9943 16.4451 95.8258 16.4318 95.6477 16.4318C95.2235 16.4318 94.8447 16.5208 94.5114 16.6989C94.1818 16.8731 93.9205 17.1155 93.7273 17.4261C93.5379 17.733 93.4432 18.0833 93.4432 18.4773V24H92.1023ZM100.624 24.2045C100.071 24.2045 99.5687 24.1004 99.1179 23.892C98.6671 23.6799 98.3092 23.375 98.044 22.9773C97.7789 22.5758 97.6463 22.0909 97.6463 21.5227C97.6463 21.0227 97.7448 20.6174 97.9418 20.3068C98.1387 19.9924 98.402 19.7462 98.7315 19.5682C99.0611 19.3902 99.4247 19.2576 99.8224 19.1705C100.224 19.0795 100.627 19.0076 101.033 18.9545C101.563 18.8864 101.993 18.8352 102.322 18.8011C102.656 18.7633 102.898 18.7008 103.05 18.6136C103.205 18.5265 103.283 18.375 103.283 18.1591V18.1136C103.283 17.553 103.129 17.1174 102.822 16.8068C102.519 16.4962 102.059 16.3409 101.442 16.3409C100.802 16.3409 100.3 16.4811 99.9361 16.7614C99.5724 17.0417 99.3168 17.3409 99.169 17.6591L97.8963 17.2045C98.1236 16.6742 98.4266 16.2614 98.8054 15.9659C99.188 15.6667 99.6046 15.4583 100.055 15.3409C100.51 15.2197 100.957 15.1591 101.396 15.1591C101.677 15.1591 101.999 15.1932 102.362 15.2614C102.73 15.3258 103.084 15.4602 103.425 15.6648C103.769 15.8693 104.055 16.178 104.283 16.5909C104.51 17.0038 104.624 17.5568 104.624 18.25V24H103.283V22.8182H103.214C103.124 23.0076 102.972 23.2102 102.76 23.4261C102.548 23.642 102.266 23.8258 101.913 23.9773C101.561 24.1288 101.131 24.2045 100.624 24.2045ZM100.828 23C101.358 23 101.805 22.8958 102.169 22.6875C102.536 22.4792 102.813 22.2102 102.999 21.8807C103.188 21.5511 103.283 21.2045 103.283 20.8409V19.6136C103.226 19.6818 103.101 19.7443 102.908 19.8011C102.718 19.8542 102.499 19.9015 102.249 19.9432C102.002 19.9811 101.762 20.0152 101.527 20.0455C101.296 20.072 101.108 20.0947 100.964 20.1136C100.616 20.1591 100.29 20.233 99.9872 20.3352C99.688 20.4337 99.4455 20.5833 99.2599 20.7841C99.0781 20.9811 98.9872 21.25 98.9872 21.5909C98.9872 22.0568 99.1596 22.4091 99.5043 22.6477C99.8527 22.8826 100.294 23 100.828 23ZM108.412 12.3636V24H107.071V12.3636H108.412ZM121.913 15.2727C121.845 14.697 121.569 14.25 121.084 13.9318C120.599 13.6136 120.004 13.4545 119.3 13.4545C118.785 13.4545 118.334 13.5379 117.947 13.7045C117.565 13.8712 117.266 14.1004 117.05 14.392C116.838 14.6837 116.732 15.0152 116.732 15.3864C116.732 15.697 116.805 15.964 116.953 16.1875C117.105 16.4072 117.298 16.5909 117.533 16.7386C117.768 16.8826 118.014 17.0019 118.271 17.0966C118.529 17.1875 118.766 17.2614 118.982 17.3182L120.163 17.6364C120.466 17.7159 120.804 17.8258 121.175 17.9659C121.55 18.1061 121.908 18.2973 122.249 18.5398C122.593 18.7784 122.877 19.0852 123.101 19.4602C123.324 19.8352 123.436 20.2955 123.436 20.8409C123.436 21.4697 123.271 22.0379 122.942 22.5455C122.616 23.053 122.139 23.4564 121.51 23.7557C120.885 24.0549 120.125 24.2045 119.232 24.2045C118.398 24.2045 117.677 24.0701 117.067 23.8011C116.461 23.5322 115.983 23.1572 115.635 22.6761C115.29 22.1951 115.095 21.6364 115.05 21H116.504C116.542 21.4394 116.69 21.803 116.947 22.0909C117.209 22.375 117.538 22.5871 117.936 22.7273C118.338 22.8636 118.769 22.9318 119.232 22.9318C119.769 22.9318 120.252 22.8447 120.68 22.6705C121.108 22.4924 121.447 22.2462 121.697 21.9318C121.947 21.6136 122.072 21.2424 122.072 20.8182C122.072 20.4318 121.964 20.1174 121.749 19.875C121.533 19.6326 121.249 19.4356 120.896 19.2841C120.544 19.1326 120.163 19 119.754 18.8864L118.322 18.4773C117.413 18.2159 116.694 17.8428 116.163 17.358C115.633 16.8731 115.368 16.2386 115.368 15.4545C115.368 14.803 115.544 14.2348 115.896 13.75C116.252 13.2614 116.73 12.8826 117.328 12.6136C117.93 12.3409 118.603 12.2045 119.345 12.2045C120.095 12.2045 120.762 12.339 121.345 12.608C121.929 12.8731 122.391 13.2367 122.732 13.6989C123.076 14.161 123.258 14.6856 123.277 15.2727H121.913ZM129.23 24.1818C128.389 24.1818 127.664 23.9962 127.054 23.625C126.448 23.25 125.98 22.7273 125.651 22.0568C125.325 21.3826 125.162 20.5985 125.162 19.7045C125.162 18.8106 125.325 18.0227 125.651 17.3409C125.98 16.6553 126.438 16.1212 127.026 15.7386C127.616 15.3523 128.306 15.1591 129.094 15.1591C129.548 15.1591 129.997 15.2348 130.44 15.3864C130.884 15.5379 131.287 15.7841 131.651 16.125C132.014 16.4621 132.304 16.9091 132.52 17.4659C132.736 18.0227 132.844 18.7083 132.844 19.5227V20.0909H126.116V18.9318H131.48C131.48 18.4394 131.382 18 131.185 17.6136C130.991 17.2273 130.715 16.9223 130.355 16.6989C129.999 16.4754 129.579 16.3636 129.094 16.3636C128.56 16.3636 128.098 16.4962 127.707 16.7614C127.321 17.0227 127.024 17.3636 126.815 17.7841C126.607 18.2045 126.503 18.6553 126.503 19.1364V19.9091C126.503 20.5682 126.616 21.1269 126.844 21.5852C127.075 22.0398 127.395 22.3864 127.804 22.625C128.213 22.8598 128.688 22.9773 129.23 22.9773C129.582 22.9773 129.901 22.928 130.185 22.8295C130.473 22.7273 130.721 22.5758 130.929 22.375C131.137 22.1705 131.298 21.9167 131.412 21.6136L132.707 21.9773C132.571 22.4167 132.342 22.803 132.02 23.1364C131.698 23.4659 131.3 23.7235 130.827 23.9091C130.353 24.0909 129.821 24.1818 129.23 24.1818ZM138.679 15.2727V16.4091H134.156V15.2727H138.679ZM135.474 13.1818H136.815V21.5C136.815 21.8788 136.87 22.1629 136.98 22.3523C137.094 22.5379 137.238 22.6629 137.412 22.7273C137.59 22.7879 137.777 22.8182 137.974 22.8182C138.122 22.8182 138.243 22.8106 138.338 22.7955C138.433 22.7765 138.509 22.7614 138.565 22.75L138.838 23.9545C138.747 23.9886 138.62 24.0227 138.457 24.0568C138.295 24.0947 138.088 24.1136 137.838 24.1136C137.459 24.1136 137.088 24.0322 136.724 23.8693C136.365 23.7064 136.065 23.4583 135.827 23.125C135.592 22.7917 135.474 22.3712 135.474 21.8636V13.1818ZM144.491 15.2727V16.4091H139.969V15.2727H144.491ZM141.287 13.1818H142.628V21.5C142.628 21.8788 142.683 22.1629 142.793 22.3523C142.906 22.5379 143.05 22.6629 143.224 22.7273C143.402 22.7879 143.59 22.8182 143.787 22.8182C143.935 22.8182 144.056 22.8106 144.151 22.7955C144.245 22.7765 144.321 22.7614 144.378 22.75L144.651 23.9545C144.56 23.9886 144.433 24.0227 144.27 24.0568C144.107 24.0947 143.901 24.1136 143.651 24.1136C143.272 24.1136 142.901 24.0322 142.537 23.8693C142.177 23.7064 141.878 23.4583 141.639 23.125C141.404 22.7917 141.287 22.3712 141.287 21.8636V13.1818ZM146.509 24V15.2727H147.849V24H146.509ZM147.19 13.8182C146.929 13.8182 146.704 13.7292 146.514 13.5511C146.329 13.3731 146.236 13.1591 146.236 12.9091C146.236 12.6591 146.329 12.4451 146.514 12.267C146.704 12.089 146.929 12 147.19 12C147.452 12 147.675 12.089 147.861 12.267C148.05 12.4451 148.145 12.6591 148.145 12.9091C148.145 13.1591 148.05 13.3731 147.861 13.5511C147.675 13.7292 147.452 13.8182 147.19 13.8182ZM151.646 18.75V24H150.305V15.2727H151.601V16.6364H151.714C151.919 16.1932 152.23 15.8371 152.646 15.5682C153.063 15.2955 153.601 15.1591 154.26 15.1591C154.851 15.1591 155.368 15.2803 155.811 15.5227C156.254 15.7614 156.599 16.125 156.845 16.6136C157.091 17.0985 157.214 17.7121 157.214 18.4545V24H155.874V18.5455C155.874 17.8598 155.696 17.3258 155.339 16.9432C154.983 16.5568 154.495 16.3636 153.874 16.3636C153.446 16.3636 153.063 16.4564 152.726 16.642C152.393 16.8277 152.129 17.0985 151.936 17.4545C151.743 17.8106 151.646 18.2424 151.646 18.75ZM163.188 27.4545C162.54 27.4545 161.983 27.3712 161.517 27.2045C161.051 27.0417 160.663 26.8258 160.352 26.5568C160.045 26.2917 159.801 26.0076 159.619 25.7045L160.688 24.9545C160.809 25.1136 160.962 25.2955 161.148 25.5C161.333 25.7083 161.587 25.8883 161.909 26.0398C162.235 26.1951 162.661 26.2727 163.188 26.2727C163.892 26.2727 164.473 26.1023 164.932 25.7614C165.39 25.4205 165.619 24.8864 165.619 24.1591V22.3864H165.506C165.407 22.5455 165.267 22.7424 165.085 22.9773C164.907 23.2083 164.65 23.4148 164.312 23.5966C163.979 23.7746 163.528 23.8636 162.96 23.8636C162.256 23.8636 161.623 23.697 161.062 23.3636C160.506 23.0303 160.064 22.5455 159.739 21.9091C159.417 21.2727 159.256 20.5 159.256 19.5909C159.256 18.697 159.413 17.9186 159.727 17.2557C160.042 16.589 160.479 16.0739 161.04 15.7102C161.6 15.3428 162.248 15.1591 162.983 15.1591C163.551 15.1591 164.002 15.2538 164.335 15.4432C164.672 15.6288 164.93 15.8409 165.108 16.0795C165.29 16.3144 165.43 16.5076 165.528 16.6591H165.665V15.2727H166.96V24.25C166.96 25 166.79 25.6098 166.449 26.0795C166.112 26.553 165.657 26.8996 165.085 27.1193C164.517 27.3428 163.884 27.4545 163.188 27.4545ZM163.142 22.6591C163.68 22.6591 164.134 22.536 164.506 22.2898C164.877 22.0436 165.159 21.6894 165.352 21.2273C165.545 20.7652 165.642 20.2121 165.642 19.5682C165.642 18.9394 165.547 18.3845 165.358 17.9034C165.169 17.4223 164.888 17.0455 164.517 16.7727C164.146 16.5 163.688 16.3636 163.142 16.3636C162.574 16.3636 162.1 16.5076 161.722 16.7955C161.347 17.0833 161.064 17.4697 160.875 17.9545C160.689 18.4394 160.597 18.9773 160.597 19.5682C160.597 20.1742 160.691 20.7102 160.881 21.1761C161.074 21.6383 161.358 22.0019 161.733 22.267C162.112 22.5284 162.581 22.6591 163.142 22.6591ZM175.597 17.2273L174.392 17.5682C174.316 17.3674 174.205 17.1723 174.057 16.983C173.913 16.7898 173.716 16.6307 173.466 16.5057C173.216 16.3807 172.896 16.3182 172.506 16.3182C171.972 16.3182 171.527 16.4413 171.17 16.6875C170.818 16.9299 170.642 17.2386 170.642 17.6136C170.642 17.947 170.763 18.2102 171.006 18.4034C171.248 18.5966 171.627 18.7576 172.142 18.8864L173.438 19.2045C174.218 19.3939 174.799 19.6837 175.182 20.0739C175.564 20.4602 175.756 20.9583 175.756 21.5682C175.756 22.0682 175.612 22.5152 175.324 22.9091C175.04 23.303 174.642 23.6136 174.131 23.8409C173.619 24.0682 173.025 24.1818 172.347 24.1818C171.456 24.1818 170.72 23.9886 170.136 23.6023C169.553 23.2159 169.184 22.6515 169.028 21.9091L170.301 21.5909C170.422 22.0606 170.652 22.4129 170.989 22.6477C171.33 22.8826 171.775 23 172.324 23C172.949 23 173.445 22.8674 173.812 22.6023C174.184 22.3333 174.369 22.0114 174.369 21.6364C174.369 21.3333 174.263 21.0795 174.051 20.875C173.839 20.6667 173.513 20.5114 173.074 20.4091L171.619 20.0682C170.82 19.8788 170.233 19.5852 169.858 19.1875C169.487 18.786 169.301 18.2841 169.301 17.6818C169.301 17.1894 169.439 16.7538 169.716 16.375C169.996 15.9962 170.377 15.6989 170.858 15.483C171.343 15.267 171.892 15.1591 172.506 15.1591C173.369 15.1591 174.047 15.3485 174.54 15.7273C175.036 16.1061 175.388 16.6061 175.597 17.2273Z" fill="#868686"/>
<circle cx="19" cy="19" r="19" fill="#E8F0F5"/>
<path d="M14 14H24M26 18H12H26ZM26 18C26.5304 18 27.0391 18.2107 27.4142 18.5858C27.7893 18.9609 28 19.4696 28 20V26C28 26.5304 27.7893 27.0391 27.4142 27.4142C27.0391 27.7893 26.5304 28 26 28H12C11.4696 28 10.9609 27.7893 10.5858 27.4142C10.2107 27.0391 10 26.5304 10 26V20C10 19.4696 10.2107 18.9609 10.5858 18.5858C10.9609 18.2107 11.4696 18 12 18H26ZM26 18V16C26 15.4696 25.7893 14.9609 25.4142 14.5858C25.0391 14.2107 24.5304 14 24 14L26 18ZM12 18V16C12 15.4696 12.2107 14.9609 12.5858 14.5858C12.9609 14.2107 13.4696 14 14 14L12 18ZM14 14V12C14 11.4696 14.2107 10.9609 14.5858 10.5858C14.9609 10.2107 15.4696 10 16 10H22C22.5304 10 23.0391 10.2107 23.4142 10.5858C23.7893 10.9609 24 11.4696 24 12V14H14Z" stroke="#868686" stroke-width="1.5" stroke-linecap="round" stroke-linejoin="round"/>
</svg>
