<svg width="152" height="38" viewBox="0 0 152 38" fill="none" xmlns="http://www.w3.org/2000/svg">
<path d="M52.4091 24V12.3636H59.3864V13.6136H53.8182V17.5455H58.8636V18.7955H53.8182V24H52.4091ZM64.5227 24.1818C63.7348 24.1818 63.0436 23.9943 62.4489 23.6193C61.858 23.2443 61.3958 22.7197 61.0625 22.0455C60.733 21.3712 60.5682 20.5833 60.5682 19.6818C60.5682 18.7727 60.733 17.9792 61.0625 17.3011C61.3958 16.6231 61.858 16.0966 62.4489 15.7216C63.0436 15.3466 63.7348 15.1591 64.5227 15.1591C65.3106 15.1591 66 15.3466 66.5909 15.7216C67.1856 16.0966 67.6477 16.6231 67.9773 17.3011C68.3106 17.9792 68.4773 18.7727 68.4773 19.6818C68.4773 20.5833 68.3106 21.3712 67.9773 22.0455C67.6477 22.7197 67.1856 23.2443 66.5909 23.6193C66 23.9943 65.3106 24.1818 64.5227 24.1818ZM64.5227 22.9773C65.1212 22.9773 65.6136 22.8239 66 22.517C66.3864 22.2102 66.6723 21.8068 66.858 21.3068C67.0436 20.8068 67.1364 20.2652 67.1364 19.6818C67.1364 19.0985 67.0436 18.5549 66.858 18.0511C66.6723 17.5473 66.3864 17.1402 66 16.8295C65.6136 16.5189 65.1212 16.3636 64.5227 16.3636C63.9242 16.3636 63.4318 16.5189 63.0455 16.8295C62.6591 17.1402 62.3731 17.5473 62.1875 18.0511C62.0019 18.5549 61.9091 19.0985 61.9091 19.6818C61.9091 20.2652 62.0019 20.8068 62.1875 21.3068C62.3731 21.8068 62.6591 22.2102 63.0455 22.517C63.4318 22.8239 63.9242 22.9773 64.5227 22.9773ZM71.8651 18.75V24H70.5241V15.2727H71.8196V16.6364H71.9332C72.1378 16.1932 72.4484 15.8371 72.8651 15.5682C73.2817 15.2955 73.8196 15.1591 74.4787 15.1591C75.0696 15.1591 75.5866 15.2803 76.0298 15.5227C76.473 15.7614 76.8177 16.125 77.0639 16.6136C77.3101 17.0985 77.4332 17.7121 77.4332 18.4545V24H76.0923V18.5455C76.0923 17.8598 75.9143 17.3258 75.5582 16.9432C75.2022 16.5568 74.7135 16.3636 74.0923 16.3636C73.6643 16.3636 73.2817 16.4564 72.9446 16.642C72.6113 16.8277 72.348 17.0985 72.1548 17.4545C71.9616 17.8106 71.8651 18.2424 71.8651 18.75ZM83.679 15.2727V16.4091H79.1562V15.2727H83.679ZM80.4744 13.1818H81.8153V21.5C81.8153 21.8788 81.8703 22.1629 81.9801 22.3523C82.0938 22.5379 82.2377 22.6629 82.4119 22.7273C82.59 22.7879 82.7775 22.8182 82.9744 22.8182C83.1222 22.8182 83.2434 22.8106 83.3381 22.7955C83.4328 22.7765 83.5085 22.7614 83.5653 22.75L83.8381 23.9545C83.7472 23.9886 83.6203 24.0227 83.4574 24.0568C83.2945 24.0947 83.0881 24.1136 82.8381 24.1136C82.4593 24.1136 82.0881 24.0322 81.7244 23.8693C81.3646 23.7064 81.0653 23.4583 80.8267 23.125C80.5919 22.7917 80.4744 22.3712 80.4744 21.8636V13.1818ZM96.7415 15.2727C96.6733 14.697 96.3968 14.25 95.9119 13.9318C95.4271 13.6136 94.8324 13.4545 94.1278 13.4545C93.6127 13.4545 93.1619 13.5379 92.7756 13.7045C92.393 13.8712 92.0938 14.1004 91.8778 14.392C91.6657 14.6837 91.5597 15.0152 91.5597 15.3864C91.5597 15.697 91.6335 15.964 91.7812 16.1875C91.9328 16.4072 92.1259 16.5909 92.3608 16.7386C92.5956 16.8826 92.8419 17.0019 93.0994 17.0966C93.357 17.1875 93.5938 17.2614 93.8097 17.3182L94.9915 17.6364C95.2945 17.7159 95.6316 17.8258 96.0028 17.9659C96.3778 18.1061 96.7358 18.2973 97.0767 18.5398C97.4214 18.7784 97.7055 19.0852 97.929 19.4602C98.1525 19.8352 98.2642 20.2955 98.2642 20.8409C98.2642 21.4697 98.0994 22.0379 97.7699 22.5455C97.4441 23.053 96.9669 23.4564 96.3381 23.7557C95.7131 24.0549 94.9536 24.2045 94.0597 24.2045C93.2263 24.2045 92.5047 24.0701 91.8949 23.8011C91.2888 23.5322 90.8116 23.1572 90.4631 22.6761C90.1184 22.1951 89.9233 21.6364 89.8778 21H91.3324C91.3703 21.4394 91.518 21.803 91.7756 22.0909C92.0369 22.375 92.3665 22.5871 92.7642 22.7273C93.1657 22.8636 93.5975 22.9318 94.0597 22.9318C94.5975 22.9318 95.0805 22.8447 95.5085 22.6705C95.9366 22.4924 96.2756 22.2462 96.5256 21.9318C96.7756 21.6136 96.9006 21.2424 96.9006 20.8182C96.9006 20.4318 96.7926 20.1174 96.5767 19.875C96.3608 19.6326 96.0767 19.4356 95.7244 19.2841C95.3722 19.1326 94.9915 19 94.5824 18.8864L93.1506 18.4773C92.2415 18.2159 91.5218 17.8428 90.9915 17.358C90.4612 16.8731 90.196 16.2386 90.196 15.4545C90.196 14.803 90.3722 14.2348 90.7244 13.75C91.0805 13.2614 91.5578 12.8826 92.1562 12.6136C92.7585 12.3409 93.4309 12.2045 94.1733 12.2045C94.9233 12.2045 95.59 12.339 96.1733 12.608C96.7566 12.8731 97.2188 13.2367 97.5597 13.6989C97.9044 14.161 98.0862 14.6856 98.1051 15.2727H96.7415ZM104.058 24.1818C103.217 24.1818 102.492 23.9962 101.882 23.625C101.276 23.25 100.808 22.7273 100.479 22.0568C100.153 21.3826 99.9901 20.5985 99.9901 19.7045C99.9901 18.8106 100.153 18.0227 100.479 17.3409C100.808 16.6553 101.267 16.1212 101.854 15.7386C102.445 15.3523 103.134 15.1591 103.922 15.1591C104.376 15.1591 104.825 15.2348 105.268 15.3864C105.712 15.5379 106.115 15.7841 106.479 16.125C106.842 16.4621 107.132 16.9091 107.348 17.4659C107.564 18.0227 107.672 18.7083 107.672 19.5227V20.0909H100.945V18.9318H106.308C106.308 18.4394 106.21 18 106.013 17.6136C105.82 17.2273 105.543 16.9223 105.183 16.6989C104.827 16.4754 104.407 16.3636 103.922 16.3636C103.388 16.3636 102.926 16.4962 102.536 16.7614C102.149 17.0227 101.852 17.3636 101.643 17.7841C101.435 18.2045 101.331 18.6553 101.331 19.1364V19.9091C101.331 20.5682 101.445 21.1269 101.672 21.5852C101.903 22.0398 102.223 22.3864 102.632 22.625C103.041 22.8598 103.517 22.9773 104.058 22.9773C104.411 22.9773 104.729 22.928 105.013 22.8295C105.301 22.7273 105.549 22.5758 105.757 22.375C105.965 22.1705 106.126 21.9167 106.24 21.6136L107.536 21.9773C107.399 22.4167 107.17 22.803 106.848 23.1364C106.526 23.4659 106.128 23.7235 105.655 23.9091C105.181 24.0909 104.649 24.1818 104.058 24.1818ZM113.507 15.2727V16.4091H108.984V15.2727H113.507ZM110.303 13.1818H111.643V21.5C111.643 21.8788 111.698 22.1629 111.808 22.3523C111.922 22.5379 112.066 22.6629 112.24 22.7273C112.418 22.7879 112.606 22.8182 112.803 22.8182C112.95 22.8182 113.071 22.8106 113.166 22.7955C113.261 22.7765 113.337 22.7614 113.393 22.75L113.666 23.9545C113.575 23.9886 113.448 24.0227 113.286 24.0568C113.123 24.0947 112.916 24.1136 112.666 24.1136C112.287 24.1136 111.916 24.0322 111.553 23.8693C111.193 23.7064 110.893 23.4583 110.655 23.125C110.42 22.7917 110.303 22.3712 110.303 21.8636V13.1818ZM119.32 15.2727V16.4091H114.797V15.2727H119.32ZM116.115 13.1818H117.456V21.5C117.456 21.8788 117.511 22.1629 117.621 22.3523C117.734 22.5379 117.878 22.6629 118.053 22.7273C118.231 22.7879 118.418 22.8182 118.615 22.8182C118.763 22.8182 118.884 22.8106 118.979 22.7955C119.073 22.7765 119.149 22.7614 119.206 22.75L119.479 23.9545C119.388 23.9886 119.261 24.0227 119.098 24.0568C118.935 24.0947 118.729 24.1136 118.479 24.1136C118.1 24.1136 117.729 24.0322 117.365 23.8693C117.005 23.7064 116.706 23.4583 116.467 23.125C116.232 22.7917 116.115 22.3712 116.115 21.8636V13.1818ZM121.337 24V15.2727H122.678V24H121.337ZM122.018 13.8182C121.757 13.8182 121.532 13.7292 121.342 13.5511C121.157 13.3731 121.064 13.1591 121.064 12.9091C121.064 12.6591 121.157 12.4451 121.342 12.267C121.532 12.089 121.757 12 122.018 12C122.28 12 122.503 12.089 122.689 12.267C122.878 12.4451 122.973 12.6591 122.973 12.9091C122.973 13.1591 122.878 13.3731 122.689 13.5511C122.503 13.7292 122.28 13.8182 122.018 13.8182ZM126.474 18.75V24H125.134V15.2727H126.429V16.6364H126.543C126.747 16.1932 127.058 15.8371 127.474 15.5682C127.891 15.2955 128.429 15.1591 129.088 15.1591C129.679 15.1591 130.196 15.2803 130.639 15.5227C131.082 15.7614 131.427 16.125 131.673 16.6136C131.92 17.0985 132.043 17.7121 132.043 18.4545V24H130.702V18.5455C130.702 17.8598 130.524 17.3258 130.168 16.9432C129.812 16.5568 129.323 16.3636 128.702 16.3636C128.274 16.3636 127.891 16.4564 127.554 16.642C127.221 16.8277 126.957 17.0985 126.764 17.4545C126.571 17.8106 126.474 18.2424 126.474 18.75ZM138.016 27.4545C137.368 27.4545 136.811 27.3712 136.345 27.2045C135.879 27.0417 135.491 26.8258 135.18 26.5568C134.874 26.2917 134.629 26.0076 134.447 25.7045L135.516 24.9545C135.637 25.1136 135.79 25.2955 135.976 25.5C136.161 25.7083 136.415 25.8883 136.737 26.0398C137.063 26.1951 137.489 26.2727 138.016 26.2727C138.72 26.2727 139.302 26.1023 139.76 25.7614C140.218 25.4205 140.447 24.8864 140.447 24.1591V22.3864H140.334C140.235 22.5455 140.095 22.7424 139.913 22.9773C139.735 23.2083 139.478 23.4148 139.141 23.5966C138.807 23.7746 138.357 23.8636 137.788 23.8636C137.084 23.8636 136.451 23.697 135.891 23.3636C135.334 23.0303 134.893 22.5455 134.567 21.9091C134.245 21.2727 134.084 20.5 134.084 19.5909C134.084 18.697 134.241 17.9186 134.555 17.2557C134.87 16.589 135.307 16.0739 135.868 15.7102C136.429 15.3428 137.076 15.1591 137.811 15.1591C138.379 15.1591 138.83 15.2538 139.163 15.4432C139.5 15.6288 139.758 15.8409 139.936 16.0795C140.118 16.3144 140.258 16.5076 140.357 16.6591H140.493V15.2727H141.788V24.25C141.788 25 141.618 25.6098 141.277 26.0795C140.94 26.553 140.485 26.8996 139.913 27.1193C139.345 27.3428 138.713 27.4545 138.016 27.4545ZM137.97 22.6591C138.508 22.6591 138.963 22.536 139.334 22.2898C139.705 22.0436 139.987 21.6894 140.18 21.2273C140.374 20.7652 140.47 20.2121 140.47 19.5682C140.47 18.9394 140.375 18.3845 140.186 17.9034C139.997 17.4223 139.716 17.0455 139.345 16.7727C138.974 16.5 138.516 16.3636 137.97 16.3636C137.402 16.3636 136.929 16.5076 136.55 16.7955C136.175 17.0833 135.893 17.4697 135.703 17.9545C135.518 18.4394 135.425 18.9773 135.425 19.5682C135.425 20.1742 135.519 20.7102 135.709 21.1761C135.902 21.6383 136.186 22.0019 136.561 22.267C136.94 22.5284 137.41 22.6591 137.97 22.6591ZM150.425 17.2273L149.22 17.5682C149.144 17.3674 149.033 17.1723 148.885 16.983C148.741 16.7898 148.544 16.6307 148.294 16.5057C148.044 16.3807 147.724 16.3182 147.334 16.3182C146.8 16.3182 146.355 16.4413 145.999 16.6875C145.646 16.9299 145.47 17.2386 145.47 17.6136C145.47 17.947 145.591 18.2102 145.834 18.4034C146.076 18.5966 146.455 18.7576 146.97 18.8864L148.266 19.2045C149.046 19.3939 149.627 19.6837 150.01 20.0739C150.393 20.4602 150.584 20.9583 150.584 21.5682C150.584 22.0682 150.44 22.5152 150.152 22.9091C149.868 23.303 149.47 23.6136 148.959 23.8409C148.447 24.0682 147.853 24.1818 147.175 24.1818C146.285 24.1818 145.548 23.9886 144.964 23.6023C144.381 23.2159 144.012 22.6515 143.857 21.9091L145.129 21.5909C145.25 22.0606 145.48 22.4129 145.817 22.6477C146.158 22.8826 146.603 23 147.152 23C147.777 23 148.273 22.8674 148.641 22.6023C149.012 22.3333 149.197 22.0114 149.197 21.6364C149.197 21.3333 149.091 21.0795 148.879 20.875C148.667 20.6667 148.341 20.5114 147.902 20.4091L146.447 20.0682C145.648 19.8788 145.061 19.5852 144.686 19.1875C144.315 18.786 144.129 18.2841 144.129 17.6818C144.129 17.1894 144.268 16.7538 144.544 16.375C144.824 15.9962 145.205 15.6989 145.686 15.483C146.171 15.267 146.72 15.1591 147.334 15.1591C148.197 15.1591 148.875 15.3485 149.368 15.7273C149.864 16.1061 150.216 16.6061 150.425 17.2273Z" fill="#868686"/>
<circle cx="19" cy="19" r="19" fill="#E8F0F5"/>
<path d="M15 9.75H12C10.7574 9.75 9.75 10.7574 9.75 12V15C9.75 16.2426 10.7574 17.25 12 17.25H15C16.2426 17.25 17.25 16.2426 17.25 15V12C17.25 10.7574 16.2426 9.75 15 9.75Z" stroke="#868686" stroke-width="1.5"/>
<path d="M26 9.75H23C21.7574 9.75 20.75 10.7574 20.75 12V15C20.75 16.2426 21.7574 17.25 23 17.25H26C27.2426 17.25 28.25 16.2426 28.25 15V12C28.25 10.7574 27.2426 9.75 26 9.75Z" stroke="#868686" stroke-width="1.5"/>
<path d="M26 20.75H23C21.7574 20.75 20.75 21.7574 20.75 23V26C20.75 27.2426 21.7574 28.25 23 28.25H26C27.2426 28.25 28.25 27.2426 28.25 26V23C28.25 21.7574 27.2426 20.75 26 20.75Z" stroke="#868686" stroke-width="1.5"/>
<path d="M15 20.75H12C10.7574 20.75 9.75 21.7574 9.75 23V26C9.75 27.2426 10.7574 28.25 12 28.25H15C16.2426 28.25 17.25 27.2426 17.25 26V23C17.25 21.7574 16.2426 20.75 15 20.75Z" stroke="#868686" stroke-width="1.5"/>
</svg>
